<svg width="18" height="19" viewBox="0 0 18 19" fill="none" xmlns="http://www.w3.org/2000/svg">
<path d="M10.998 8.962C11.6913 8.962 12.2817 8.719 12.769 8.233C13.2563 7.74767 13.5 7.15767 13.5 6.463C13.5 5.76967 13.2573 5.17967 12.772 4.693C12.286 4.20567 11.696 3.962 11.002 3.962C10.3087 3.962 9.71833 4.20467 9.231 4.69C8.74367 5.176 8.5 5.766 8.5 6.46C8.5 7.15333 8.743 7.74333 9.229 8.23C9.71433 8.718 10.304 8.962 10.998 8.962ZM5.577 13.442C6.28833 12.674 7.11167 12.0813 8.047 11.664C8.981 11.2467 9.96533 11.038 11 11.038C12.0347 11.038 13.0193 11.2467 13.954 11.664C14.8887 12.0813 15.712 12.674 16.424 13.442C16.5907 13.442 16.7283 13.3813 16.837 13.26C16.9457 13.138 17 12.9937 17 12.827V2.115C17 1.93567 16.9423 1.78833 16.827 1.673C16.7117 1.55767 16.5643 1.5 16.385 1.5H5.615C5.43567 1.5 5.28833 1.55767 5.173 1.673C5.05767 1.78833 5 1.93567 5 2.115V12.827C5 12.9937 5.05433 13.138 5.163 13.26C5.27233 13.3813 5.41033 13.442 5.577 13.442ZM5.615 14.5C5.171 14.5 4.791 14.3417 4.475 14.025C4.15833 13.709 4 13.329 4 12.885V2.115C4 1.671 4.15833 1.291 4.475 0.975C4.791 0.658333 5.171 0.5 5.615 0.5H16.385C16.829 0.5 17.209 0.658333 17.525 0.975C17.8417 1.291 18 1.671 18 2.115V12.885C18 13.329 17.8417 13.709 17.525 14.025C17.209 14.3417 16.829 14.5 16.385 14.5H5.615ZM1.615 18.5C1.171 18.5 0.791 18.3417 0.475 18.025C0.158333 17.709 0 17.329 0 16.885V4.5H1V16.885C1 17.0643 1.05767 17.2117 1.173 17.327C1.28833 17.4423 1.43567 17.5 1.615 17.5H14V18.5H1.615ZM11 7.962C10.5887 7.962 10.2357 7.81467 9.941 7.52C9.647 7.226 9.5 6.87333 9.5 6.462C9.5 6.05 9.647 5.69667 9.941 5.402C10.2357 5.10867 10.5887 4.962 11 4.962C11.4113 4.962 11.7643 5.10867 12.059 5.402C12.353 5.69667 12.5 6.05 12.5 6.462C12.5 6.87333 12.353 7.226 12.059 7.52C11.7643 7.81467 11.4113 7.962 11 7.962ZM6.97 13.5H15.03C14.47 13.0133 13.846 12.648 13.158 12.404C12.4693 12.16 11.75 12.038 11 12.038C10.25 12.038 9.53067 12.16 8.842 12.404C8.154 12.6473 7.53 13.0127 6.97 13.5Z" fill="black"/>
</svg>
