<svg width="20" height="21" viewBox="0 0 20 21" fill="none" xmlns="http://www.w3.org/2000/svg">
<path d="M1.5625 1.67654C1.47962 1.67654 1.40013 1.70753 1.34153 1.76269C1.28292 1.81785 1.25 1.89267 1.25 1.97067V14.3243C1.25 14.4867 1.39 14.6185 1.5625 14.6185H6.875V15.795H1.5625C0.7 15.795 0 15.1362 0 14.3243V1.97067C0 1.15886 0.7 0.5 1.5625 0.5H8.4375C9.3 0.5 10 1.15886 10 1.97067V4.91202C10 5.07439 10.14 5.20616 10.3125 5.20616H12.1875C13.05 5.20616 13.75 5.86502 13.75 6.67683V7.55924C13.3112 7.6063 12.8813 7.74866 12.5 7.98868V6.67683C12.5 6.59882 12.4671 6.52401 12.4085 6.46885C12.3499 6.41369 12.2704 6.3827 12.1875 6.3827H10.3125C9.45 6.3827 8.75 5.72384 8.75 4.91202V1.97067C8.75 1.89267 8.71708 1.81785 8.65847 1.76269C8.59987 1.70753 8.52038 1.67654 8.4375 1.67654H1.5625ZM15.0763 9.06992C14.7935 8.843 14.4341 8.71836 14.0625 8.71836C13.6909 8.71836 13.3315 8.843 13.0487 9.06992L8.71125 12.5525C8.52765 12.6996 8.38015 12.8824 8.27893 13.0884C8.17771 13.2944 8.1252 13.5185 8.125 13.7455V19.1764C8.125 19.9082 8.755 20.5 9.53125 20.5H11.7188C12.495 20.5 13.125 19.9082 13.125 19.1764V17.1186C13.125 17.0374 13.195 16.9716 13.2812 16.9716H14.8438C14.93 16.9716 15 17.0374 15 17.1186V19.1776C15 19.907 15.63 20.5 16.4062 20.5H18.5938C19.37 20.5 20 19.9082 20 19.1764V13.7455C20 13.2866 19.7862 12.8501 19.415 12.5525L15.0763 9.06992ZM13.86 9.96526C13.9165 9.92 13.9883 9.89515 14.0625 9.89515C14.1367 9.89515 14.2085 9.92 14.265 9.96526L18.6025 13.4478C18.6484 13.4845 18.6854 13.5301 18.7109 13.5815C18.7363 13.6328 18.7497 13.6888 18.75 13.7455V19.1764C18.75 19.2588 18.68 19.3235 18.5938 19.3235H16.4062C16.3648 19.3235 16.3251 19.308 16.2958 19.2804C16.2665 19.2528 16.25 19.2154 16.25 19.1764V17.1186C16.25 16.388 15.62 15.795 14.8438 15.795H13.2812C12.505 15.795 11.875 16.388 11.875 17.1186V19.1776C11.8747 19.2164 11.8581 19.2535 11.8288 19.2808C11.7995 19.3081 11.76 19.3235 11.7188 19.3235H9.53125C9.48981 19.3235 9.45007 19.308 9.42076 19.2804C9.39146 19.2528 9.375 19.2154 9.375 19.1764V13.7455C9.375 13.6314 9.42875 13.5219 9.52125 13.4478L13.86 9.96526ZM4.375 3.73548C4.375 3.96951 4.27623 4.19396 4.10041 4.35944C3.9246 4.52492 3.68614 4.61789 3.4375 4.61789C3.18886 4.61789 2.9504 4.52492 2.77459 4.35944C2.59877 4.19396 2.5 3.96951 2.5 3.73548C2.5 3.50146 2.59877 3.27701 2.77459 3.11153C2.9504 2.94605 3.18886 2.85308 3.4375 2.85308C3.68614 2.85308 3.9246 2.94605 4.10041 3.11153C4.27623 3.27701 4.375 3.50146 4.375 3.73548ZM3.4375 7.2651C3.68614 7.2651 3.9246 7.17214 4.10041 7.00665C4.27623 6.84117 4.375 6.61673 4.375 6.3827C4.375 6.14867 4.27623 5.92423 4.10041 5.75874C3.9246 5.59326 3.68614 5.50029 3.4375 5.50029C3.18886 5.50029 2.9504 5.59326 2.77459 5.75874C2.59877 5.92423 2.5 6.14867 2.5 6.3827C2.5 6.61673 2.59877 6.84117 2.77459 7.00665C2.9504 7.17214 3.18886 7.2651 3.4375 7.2651ZM4.375 9.02991C4.375 9.26394 4.27623 9.48838 4.10041 9.65387C3.9246 9.81935 3.68614 9.91232 3.4375 9.91232C3.18886 9.91232 2.9504 9.81935 2.77459 9.65387C2.59877 9.48838 2.5 9.26394 2.5 9.02991C2.5 8.79589 2.59877 8.57144 2.77459 8.40596C2.9504 8.24048 3.18886 8.14751 3.4375 8.14751C3.68614 8.14751 3.9246 8.24048 4.10041 8.40596C4.27623 8.57144 4.375 8.79589 4.375 9.02991ZM6.5625 4.61789C6.81114 4.61789 7.0496 4.52492 7.22541 4.35944C7.40123 4.19396 7.5 3.96951 7.5 3.73548C7.5 3.50146 7.40123 3.27701 7.22541 3.11153C7.0496 2.94605 6.81114 2.85308 6.5625 2.85308C6.31386 2.85308 6.0754 2.94605 5.89959 3.11153C5.72377 3.27701 5.625 3.50146 5.625 3.73548C5.625 3.96951 5.72377 4.19396 5.89959 4.35944C6.0754 4.52492 6.31386 4.61789 6.5625 4.61789ZM7.5 6.3827C7.5 6.61673 7.40123 6.84117 7.22541 7.00665C7.0496 7.17214 6.81114 7.2651 6.5625 7.2651C6.31386 7.2651 6.0754 7.17214 5.89959 7.00665C5.72377 6.84117 5.625 6.61673 5.625 6.3827C5.625 6.14867 5.72377 5.92423 5.89959 5.75874C6.0754 5.59326 6.31386 5.50029 6.5625 5.50029C6.81114 5.50029 7.0496 5.59326 7.22541 5.75874C7.40123 5.92423 7.5 6.14867 7.5 6.3827ZM6.5625 9.91232C6.81114 9.91232 7.0496 9.81935 7.22541 9.65387C7.40123 9.48838 7.5 9.26394 7.5 9.02991C7.5 8.79589 7.40123 8.57144 7.22541 8.40596C7.0496 8.24048 6.81114 8.14751 6.5625 8.14751C6.31386 8.14751 6.0754 8.24048 5.89959 8.40596C5.72377 8.57144 5.625 8.79589 5.625 9.02991C5.625 9.26394 5.72377 9.48838 5.89959 9.65387C6.0754 9.81935 6.31386 9.91232 6.5625 9.91232Z" fill="black"/>
</svg>
