<svg width="20" height="21" viewBox="0 0 20 21" fill="none" xmlns="http://www.w3.org/2000/svg">
<path d="M2.5 20.5C1.795 20.5 1.20208 20.2816 0.72125 19.8449C0.240417 19.4081 0 18.8734 0 18.2406V15.9584H3.75V0.5L5.3375 1.50369L6.97125 0.5L8.60625 1.50369L10.24 0.5L11.875 1.50369L13.51 0.5L15.1437 1.50369L16.7788 0.5L18.4138 1.50369L20 0.5V18.2292C20 18.8696 19.7596 19.4081 19.2788 19.8449C18.7979 20.2816 18.205 20.5 17.5 20.5H2.5ZM17.5 19.3646C17.8542 19.3646 18.1512 19.2556 18.3912 19.0376C18.6312 18.8196 18.7508 18.5501 18.75 18.2292V2.33366H5V15.9584H16.25V18.2292C16.25 18.5509 16.37 18.8207 16.61 19.0387C16.85 19.2567 17.1467 19.3654 17.5 19.3646ZM6.73125 6.30755V5.17215H13.4137V6.30755H6.73125ZM6.73125 9.71374V8.57834H13.4137V9.71374H6.73125ZM16.1063 6.61411C15.8479 6.61411 15.6229 6.52706 15.4312 6.35297C15.2396 6.17887 15.1437 5.9745 15.1437 5.73985C15.1437 5.5052 15.2396 5.30083 15.4312 5.12674C15.6229 4.95264 15.8479 4.8656 16.1063 4.8656C16.3646 4.8656 16.5892 4.95264 16.78 5.12674C16.9717 5.30083 17.0675 5.5052 17.0675 5.73985C17.0675 5.9745 16.9717 6.17887 16.78 6.35297C16.5883 6.52706 16.3646 6.61411 16.1063 6.61411ZM16.105 10.0203C15.8475 10.0203 15.6229 9.93325 15.4312 9.75915C15.2396 9.58506 15.1437 9.38069 15.1437 9.14604C15.1437 8.91139 15.2396 8.70702 15.4312 8.53293C15.6229 8.35883 15.8479 8.27178 16.1063 8.27178C16.3646 8.27178 16.5892 8.35883 16.78 8.53293C16.9717 8.70702 17.0675 8.91139 17.0675 9.14604C17.0675 9.38069 16.9717 9.58506 16.78 9.75915C16.5883 9.93325 16.3633 10.0203 16.105 10.0203ZM2.5 19.3646H15V17.0938H1.25V18.2292C1.25 18.5509 1.37 18.8207 1.61 19.0387C1.85 19.2567 2.14667 19.3654 2.5 19.3646Z" fill="black"/>
</svg>
