<svg width="16" height="21" viewBox="0 0 16 21" fill="none" xmlns="http://www.w3.org/2000/svg">
<path d="M11.4286 13.1914C11.4286 13.2934 11.3884 13.3913 11.317 13.4634C11.2456 13.5355 11.1487 13.5761 11.0476 13.5761H4.95238C4.85135 13.5761 4.75445 13.5355 4.68301 13.4634C4.61156 13.3913 4.57143 13.2934 4.57143 13.1914C4.57143 13.0894 4.61156 12.9915 4.68301 12.9194C4.75445 12.8473 4.85135 12.8067 4.95238 12.8067H11.0476C11.1487 12.8067 11.2456 12.8473 11.317 12.9194C11.3884 12.9915 11.4286 13.0894 11.4286 13.1914ZM11.0476 9.72944H4.95238C4.85135 9.72944 4.75445 9.76997 4.68301 9.84211C4.61156 9.91425 4.57143 10.0121 4.57143 10.1141C4.57143 10.2161 4.61156 10.314 4.68301 10.3861C4.75445 10.4582 4.85135 10.4988 4.95238 10.4988H11.0476C11.1487 10.4988 11.2456 10.4582 11.317 10.3861C11.3884 10.314 11.4286 10.2161 11.4286 10.1141C11.4286 10.0121 11.3884 9.91425 11.317 9.84211C11.2456 9.76997 11.1487 9.72944 11.0476 9.72944ZM16 3.19018V19.346C16 19.6521 15.8796 19.9456 15.6653 20.162C15.4509 20.3784 15.1602 20.5 14.8571 20.5H1.14286C0.839753 20.5 0.549062 20.3784 0.334735 20.162C0.120408 19.9456 0 19.6521 0 19.346V3.19018C0 2.88412 0.120408 2.5906 0.334735 2.37419C0.549062 2.15777 0.839753 2.03619 1.14286 2.03619H4.76952C5.1627 1.55569 5.65615 1.16883 6.2146 0.903264C6.77306 0.637703 7.38272 0.5 8 0.5C8.61728 0.5 9.22694 0.637703 9.7854 0.903264C10.3438 1.16883 10.8373 1.55569 11.2305 2.03619H14.8571C15.1602 2.03619 15.4509 2.15777 15.6653 2.37419C15.8796 2.5906 16 2.88412 16 3.19018ZM4.57143 4.72883V5.11349H11.4286V4.72883C11.4286 3.81066 11.0673 2.93009 10.4244 2.28085C9.78138 1.63161 8.90931 1.26686 8 1.26686C7.09069 1.26686 6.21862 1.63161 5.57563 2.28085C4.93265 2.93009 4.57143 3.81066 4.57143 4.72883ZM15.2381 3.19018C15.2381 3.08816 15.198 2.99032 15.1265 2.91818C15.0551 2.84604 14.9582 2.80552 14.8571 2.80552H11.7305C12.0332 3.40053 12.1909 4.0599 12.1905 4.72883V5.49815C12.1905 5.60017 12.1503 5.69801 12.0789 5.77015C12.0075 5.84229 11.9106 5.88282 11.8095 5.88282H4.19048C4.08944 5.88282 3.99254 5.84229 3.9211 5.77015C3.84966 5.69801 3.80952 5.60017 3.80952 5.49815V4.72883C3.80911 4.0599 3.96681 3.40053 4.26952 2.80552H1.14286C1.04182 2.80552 0.944926 2.84604 0.873483 2.91818C0.802041 2.99032 0.761905 3.08816 0.761905 3.19018V19.346C0.761905 19.448 0.802041 19.5459 0.873483 19.618C0.944926 19.6901 1.04182 19.7307 1.14286 19.7307H14.8571C14.9582 19.7307 15.0551 19.6901 15.1265 19.618C15.198 19.5459 15.2381 19.448 15.2381 19.346V3.19018Z" fill="black"/>
</svg>
