<svg width="20" height="21" viewBox="0 0 20 21" fill="none" xmlns="http://www.w3.org/2000/svg">
<path d="M12.638 5.07664V8.92236H11.0633V5.07664L8.70123 5.07664L11.8506 2.00007L15 5.07664H12.638Z" fill="black"/>
<path d="M19.9102 4.48417C19.8742 4.44089 19.829 4.40605 19.778 4.38213C19.727 4.3582 19.6714 4.34578 19.615 4.34573H3.78262L3.25571 1.44701C3.2073 1.18118 3.06711 0.940779 2.85959 0.767715C2.65206 0.594651 2.39038 0.499906 2.12015 0.5H0.384608C0.282604 0.5 0.184777 0.540518 0.112649 0.612639C0.0405211 0.68476 0 0.782578 0 0.884573C0 0.986568 0.0405211 1.08439 0.112649 1.15651C0.184777 1.22863 0.282604 1.26915 0.384608 1.26915H2.11535C2.20642 1.26766 2.29506 1.29854 2.36549 1.35629C2.43592 1.41404 2.48357 1.49491 2.49995 1.5845L4.95183 15.0734C5.03763 15.5424 5.29463 15.9628 5.67297 16.2531C5.27624 16.5087 4.96746 16.8799 4.78827 17.3165C4.60907 17.7532 4.56809 18.2342 4.67083 18.6949C4.77358 19.1555 5.01512 19.5735 5.36288 19.8926C5.71064 20.2117 6.14789 20.4165 6.61568 20.4794C7.08347 20.5423 7.55929 20.4602 7.97899 20.2443C8.39868 20.0284 8.74206 19.6889 8.96282 19.2718C9.18359 18.8546 9.27111 18.3798 9.2136 17.9114C9.15609 17.443 8.95631 17.0034 8.64119 16.6521H14.4353C14.083 17.0459 13.8766 17.5487 13.8505 18.0765C13.8244 18.6042 13.9803 19.125 14.292 19.5516C14.6038 19.9783 15.0526 20.285 15.5633 20.4206C16.0741 20.5561 16.6159 20.5123 17.0982 20.2964C17.5806 20.0805 17.9742 19.7056 18.2133 19.2344C18.4524 18.7631 18.5225 18.2241 18.4119 17.7074C18.3013 17.1907 18.0167 16.7276 17.6056 16.3956C17.1946 16.0635 16.682 15.8825 16.1536 15.8829H6.84315C6.57309 15.8828 6.31163 15.7879 6.10431 15.6149C5.89699 15.4418 5.75694 15.2016 5.70855 14.9359L5.32394 12.8063H16.9324C17.3828 12.8064 17.8189 12.6484 18.1647 12.3599C18.5105 12.0714 18.744 11.6707 18.8247 11.2277L19.9939 4.79953C20.0039 4.74404 20.0016 4.68704 19.9871 4.63254C19.9727 4.57804 19.9464 4.52739 19.9102 4.48417ZM8.46139 18.1904C8.46139 18.4946 8.37116 18.792 8.20211 19.045C8.03307 19.298 7.7928 19.4951 7.51168 19.6115C7.23057 19.728 6.92125 19.7584 6.62282 19.6991C6.32439 19.6397 6.05027 19.4932 5.83512 19.2781C5.61996 19.063 5.47344 18.7889 5.41408 18.4905C5.35472 18.1921 5.38518 17.8828 5.50162 17.6017C5.61806 17.3206 5.81525 17.0803 6.06824 16.9113C6.32124 16.7423 6.61868 16.6521 6.92295 16.6521C7.33097 16.6521 7.72228 16.8141 8.01079 17.1026C8.2993 17.3911 8.46139 17.7824 8.46139 18.1904ZM17.692 18.1904C17.692 18.4946 17.6018 18.792 17.4327 19.045C17.2637 19.298 17.0234 19.4951 16.7423 19.6115C16.4612 19.728 16.1518 19.7584 15.8534 19.6991C15.555 19.6397 15.2809 19.4932 15.0657 19.2781C14.8506 19.063 14.704 18.7889 14.6447 18.4905C14.5853 18.1921 14.6158 17.8828 14.7322 17.6017C14.8487 17.3206 15.0459 17.0803 15.2988 16.9113C15.5518 16.7423 15.8493 16.6521 16.1536 16.6521C16.5616 16.6521 16.9529 16.8141 17.2414 17.1026C17.5299 17.3911 17.692 17.7824 17.692 18.1904ZM18.0679 11.0902C18.0195 11.356 17.8793 11.5964 17.6718 11.7695C17.4643 11.9425 17.2026 12.0373 16.9324 12.0372H5.18068L3.78262 4.34573H11.5898H19.615L18.0679 11.0902Z" fill="black"/>
</svg>
