<svg width="24" height="18" viewBox="0 0 24 18" fill="none" xmlns="http://www.w3.org/2000/svg">
<path d="M22.7364 5.78442C22.5954 5.66141 22.421 5.58308 22.2354 5.55938C22.0498 5.53567 21.8613 5.56767 21.6939 5.65129L16.8311 8.07567L12.8121 1.39598C12.7278 1.25603 12.6087 1.14024 12.4664 1.05987C12.3242 0.979493 12.1636 0.937256 12.0002 0.937256C11.8368 0.937256 11.6762 0.979493 11.5339 1.05987C11.3917 1.14024 11.2726 1.25603 11.1883 1.39598L7.16925 8.07567L2.30831 5.65223C2.14095 5.56867 1.9526 5.53656 1.76701 5.55994C1.58142 5.58332 1.40691 5.66114 1.2655 5.78359C1.1241 5.90605 1.02213 6.06764 0.972463 6.24798C0.922797 6.42832 0.927659 6.61934 0.986436 6.79692L4.45519 17.4244C4.48131 17.5046 4.52514 17.5779 4.58343 17.6389C4.64172 17.6999 4.71298 17.747 4.79193 17.7767C4.87089 17.8064 4.95551 17.818 5.03954 17.8105C5.12357 17.8031 5.20485 17.7769 5.27737 17.7338C5.28394 17.7338 5.89237 17.3738 7.02112 17.0232C8.06269 16.6988 9.76987 16.3125 12.0002 16.3125C14.2305 16.3125 15.9377 16.6988 16.9802 17.0232C18.1052 17.3738 18.7174 17.73 18.7221 17.7329C18.7946 17.7761 18.8759 17.8026 18.9599 17.8101C19.044 17.8177 19.1288 17.8063 19.2078 17.7766C19.2869 17.747 19.3583 17.7 19.4167 17.639C19.4751 17.578 19.519 17.5047 19.5452 17.4244L23.0139 6.79879C23.0744 6.62135 23.0803 6.42985 23.0308 6.24903C22.9813 6.06821 22.8788 5.90637 22.7364 5.78442ZM18.678 16.456C17.6467 15.9947 15.3593 15.1875 12.0002 15.1875C8.64112 15.1875 6.35362 15.9947 5.32237 16.456L2.18644 6.84848L6.813 9.15473C7.02656 9.26021 7.27188 9.28185 7.50061 9.21539C7.72933 9.14892 7.92486 8.99917 8.04862 8.79567L12.0002 2.23317L15.9517 8.80036C16.0756 9.00346 16.271 9.15291 16.4995 9.21935C16.7279 9.28578 16.9729 9.26441 17.1864 9.15942L21.8139 6.85223L18.678 16.456ZM16.3043 13.1672C16.2821 13.298 16.2145 13.4168 16.1133 13.5026C16.0121 13.5884 15.8838 13.6356 15.7511 13.636C15.7197 13.6357 15.6883 13.6329 15.6574 13.6275C13.2401 13.2125 10.7697 13.2125 8.35237 13.6275C8.20493 13.6535 8.0532 13.6199 7.93057 13.534C7.80794 13.4481 7.72445 13.317 7.69847 13.1696C7.67248 13.0221 7.70614 12.8704 7.79202 12.7478C7.87791 12.6251 8.00899 12.5416 8.15644 12.5157C10.7028 12.0782 13.3051 12.0782 15.8514 12.5157C15.9977 12.5424 16.1274 12.6259 16.2123 12.748C16.2972 12.8701 16.3302 13.0208 16.3043 13.1672Z" fill="black"/>
</svg>
