<svg width="20" height="21" viewBox="0 0 20 21" fill="none" xmlns="http://www.w3.org/2000/svg">
<path d="M9.5 11.5C8.41221 11.5 7.34884 11.1774 6.44437 10.5731C5.5399 9.96874 4.83495 9.10976 4.41867 8.10476C4.00238 7.09977 3.89346 5.9939 4.10568 4.92701C4.3179 3.86011 4.84173 2.8801 5.61092 2.11092C6.3801 1.34173 7.36011 0.817902 8.42701 0.605683C9.4939 0.393465 10.5998 0.502383 11.6048 0.918665C12.6098 1.33495 13.4687 2.0399 14.0731 2.94437C14.6774 3.84884 15 4.91221 15 6C14.9974 7.45788 14.417 8.85529 13.3862 9.88617C12.3553 10.917 10.9579 11.4974 9.5 11.5ZM9.5 1.5C8.60999 1.5 7.73996 1.76392 6.99994 2.25839C6.25992 2.75286 5.68314 3.45566 5.34254 4.27793C5.00195 5.10019 4.91284 6.00499 5.08647 6.87791C5.2601 7.75082 5.68869 8.55265 6.31802 9.18198C6.94736 9.81132 7.74918 10.2399 8.6221 10.4135C9.49501 10.5872 10.3998 10.4981 11.2221 10.1575C12.0443 9.81687 12.7471 9.24009 13.2416 8.50007C13.7361 7.76005 14 6.89002 14 6C13.9974 4.80734 13.5224 3.66428 12.6791 2.82094C11.8357 1.9776 10.6927 1.50264 9.5 1.5Z" fill="black"/>
<path d="M0.5 19.5C0.367392 19.5 0.240215 19.4473 0.146447 19.3536C0.0526785 19.2598 0 19.1326 0 19C0.00264654 16.7465 0.89903 14.586 2.49252 12.9925C4.086 11.399 6.24647 10.5026 8.5 10.5H10.5C10.6326 10.5 10.7598 10.5527 10.8536 10.6464C10.9473 10.7402 11 10.8674 11 11C11 11.1326 10.9473 11.2598 10.8536 11.3536C10.7598 11.4473 10.6326 11.5 10.5 11.5H8.5C6.51088 11.5 4.60322 12.2902 3.1967 13.6967C1.79018 15.1032 1 17.0109 1 19C1 19.1326 0.947321 19.2598 0.853553 19.3536C0.759785 19.4473 0.632608 19.5 0.5 19.5Z" fill="black"/>
<path d="M12.4999 20.4999C12.4343 20.5007 12.3693 20.4877 12.309 20.4619C12.2487 20.4361 12.1945 20.3979 12.1499 20.3499L8.14986 16.3499C8.05703 16.257 8.00488 16.1311 8.00488 15.9999C8.00488 15.8686 8.05703 15.7427 8.14986 15.6499C8.24268 15.557 8.36858 15.5049 8.49986 15.5049C8.63113 15.5049 8.75703 15.557 8.84986 15.6499L12.4799 19.2699L19.1199 11.6699C19.2074 11.5691 19.3314 11.5072 19.4645 11.4978C19.5977 11.4884 19.7291 11.5324 19.8299 11.6199C19.9306 11.7074 19.9925 11.8314 20.0019 11.9645C20.0113 12.0977 19.9674 12.2291 19.8799 12.3299L12.8799 20.3299C12.8351 20.3818 12.7799 20.4238 12.7179 20.4531C12.6559 20.4824 12.5884 20.4983 12.5199 20.4999H12.4999Z" fill="black"/>
</svg>
