<svg width="20" height="21" viewBox="0 0 20 21" fill="none" xmlns="http://www.w3.org/2000/svg">
<path d="M4.6625 16.125H5.9125V8.625H4.6625V16.125ZM9.375 16.125H10.625V4.875H9.375V16.125ZM14.0875 16.125H15.3375V12.375H14.0875V16.125ZM2.0175 20.5C1.4425 20.5 0.9625 20.3075 0.5775 19.9225C0.1925 19.5367 0 19.0562 0 18.4813V2.51875C0 1.94375 0.192916 1.46375 0.57875 1.07875C0.96375 0.692916 1.44375 0.5 2.01875 0.5H17.9813C18.5562 0.5 19.0363 0.692916 19.4213 1.07875C19.8071 1.46375 20 1.94375 20 2.51875V18.4813C20 19.0562 19.8075 19.5363 19.4225 19.9213C19.0367 20.3071 18.5562 20.5 17.9813 20.5H2.0175ZM2.0175 19.25H17.98C18.1717 19.25 18.3479 19.17 18.5087 19.01C18.6687 18.8492 18.7488 18.6729 18.7488 18.4813V2.51875C18.7488 2.32708 18.6687 2.15083 18.5087 1.99C18.3487 1.83 18.1729 1.75 17.9813 1.75H2.01875C1.82708 1.75 1.65083 1.83 1.49 1.99C1.33 2.15083 1.25 2.32708 1.25 2.51875V18.4813C1.25 18.6729 1.33 18.8492 1.49 19.01C1.65083 19.17 1.82583 19.25 2.0175 19.25Z" fill="black"/>
</svg>
