<svg width="16" height="16" viewBox="0 0 16 16" fill="none" xmlns="http://www.w3.org/2000/svg">
<path d="M4.75475 0.5C4.89399 0.5 5.02752 0.555312 5.12598 0.653769C5.22444 0.752226 5.27975 0.885761 5.27975 1.025V2.00675H10.9175V1.03175C10.9175 0.892511 10.9728 0.758976 11.0713 0.660519C11.1697 0.562062 11.3033 0.50675 11.4425 0.50675C11.5817 0.50675 11.7153 0.562062 11.8137 0.660519C11.9122 0.758976 11.9675 0.892511 11.9675 1.03175V2.00675H14C14.3977 2.00675 14.7791 2.16468 15.0604 2.44582C15.3417 2.72697 15.4998 3.10831 15.5 3.506V14.0007C15.4998 14.3984 15.3417 14.7798 15.0604 15.0609C14.7791 15.3421 14.3977 15.5 14 15.5H2C1.60231 15.5 1.22089 15.3421 0.939605 15.0609C0.658322 14.7798 0.500199 14.3984 0.5 14.0007V3.506C0.500199 3.10831 0.658322 2.72697 0.939605 2.44582C1.22089 2.16468 1.60231 2.00675 2 2.00675H4.22975V1.02425C4.22995 0.885141 4.28535 0.751798 4.38378 0.653504C4.48222 0.555209 4.61564 0.5 4.75475 0.5ZM1.55 6.3065V14.0007C1.55 14.0598 1.56164 14.1184 1.58425 14.173C1.60687 14.2276 1.64002 14.2772 1.6818 14.3189C1.72359 14.3607 1.7732 14.3939 1.82779 14.4165C1.88239 14.4391 1.94091 14.4507 2 14.4508H14C14.0591 14.4507 14.1176 14.4391 14.1722 14.4165C14.2268 14.3939 14.2764 14.3607 14.3182 14.3189C14.36 14.2772 14.3931 14.2276 14.4157 14.173C14.4384 14.1184 14.45 14.0598 14.45 14.0007V6.317L1.55 6.3065ZM5.50025 11.4643V12.7137H4.25V11.4643H5.50025ZM8.62475 11.4643V12.7137H7.37525V11.4643H8.62475ZM11.75 11.4643V12.7137H10.4998V11.4643H11.75ZM5.50025 8.4815V9.731H4.25V8.4815H5.50025ZM8.62475 8.4815V9.731H7.37525V8.4815H8.62475ZM11.75 8.4815V9.731H10.4998V8.4815H11.75ZM4.22975 3.056H2C1.94091 3.056 1.88239 3.06764 1.82779 3.09025C1.7732 3.11287 1.72359 3.14602 1.6818 3.1878C1.64002 3.22959 1.60687 3.2792 1.58425 3.33379C1.56164 3.38839 1.55 3.44691 1.55 3.506V5.25725L14.45 5.26775V3.506C14.45 3.44691 14.4384 3.38839 14.4157 3.33379C14.3931 3.2792 14.36 3.22959 14.3182 3.1878C14.2764 3.14602 14.2268 3.11287 14.1722 3.09025C14.1176 3.06764 14.0591 3.056 14 3.056H11.9675V3.75275C11.9675 3.89199 11.9122 4.02552 11.8137 4.12398C11.7153 4.22244 11.5817 4.27775 11.4425 4.27775C11.3033 4.27775 11.1697 4.22244 11.0713 4.12398C10.9728 4.02552 10.9175 3.89199 10.9175 3.75275V3.056H5.27975V3.746C5.27975 3.88524 5.22444 4.01877 5.12598 4.11723C5.02752 4.21569 4.89399 4.271 4.75475 4.271C4.61551 4.271 4.48198 4.21569 4.38352 4.11723C4.28506 4.01877 4.22975 3.88524 4.22975 3.746V3.056Z" fill="#666666"/>
</svg>
