<svg width="18" height="19" viewBox="0 0 18 19" fill="none" xmlns="http://www.w3.org/2000/svg">
<path fill-rule="evenodd" clip-rule="evenodd" d="M11.386 9.8335C11.2481 9.44351 10.9927 9.10587 10.6549 8.86706C10.3171 8.62824 9.91366 8.50001 9.5 8.5V8H8.5V8.5C7.96957 8.5 7.46086 8.71071 7.08579 9.08579C6.71071 9.46086 6.5 9.96957 6.5 10.5C6.5 11.0304 6.71071 11.5391 7.08579 11.9142C7.46086 12.2893 7.96957 12.5 8.5 12.5V14.5C8.065 14.5 7.6945 14.2225 7.5565 13.8335C7.53603 13.7699 7.503 13.711 7.45936 13.6603C7.41573 13.6097 7.36239 13.5683 7.30248 13.5386C7.24257 13.5089 7.17732 13.4916 7.11059 13.4875C7.04386 13.4835 6.97699 13.4929 6.91396 13.5152C6.85092 13.5375 6.79299 13.5721 6.7436 13.6172C6.6942 13.6622 6.65434 13.7167 6.62637 13.7775C6.59841 13.8382 6.5829 13.9039 6.58078 13.9707C6.57865 14.0376 6.58995 14.1041 6.614 14.1665C6.75192 14.5565 7.00734 14.8941 7.3451 15.1329C7.68286 15.3718 8.08634 15.5 8.5 15.5V16H9.5V15.5C10.0304 15.5 10.5391 15.2893 10.9142 14.9142C11.2893 14.5391 11.5 14.0304 11.5 13.5C11.5 12.9696 11.2893 12.4609 10.9142 12.0858C10.5391 11.7107 10.0304 11.5 9.5 11.5V9.5C9.70681 9.49995 9.90854 9.56402 10.0774 9.68338C10.2463 9.80274 10.374 9.97153 10.443 10.1665C10.4872 10.2915 10.5792 10.3939 10.6988 10.4511C10.7581 10.4795 10.8223 10.4958 10.8879 10.4993C10.9535 10.5028 11.0191 10.4934 11.081 10.4715C11.1429 10.4496 11.1999 10.4158 11.2488 10.3719C11.2976 10.328 11.3373 10.2749 11.3656 10.2157C11.394 10.1564 11.4103 10.0922 11.4138 10.0266C11.4173 9.96104 11.4079 9.89542 11.386 9.8335ZM8.5 9.5C8.23478 9.5 7.98043 9.60536 7.79289 9.79289C7.60536 9.98043 7.5 10.2348 7.5 10.5C7.5 10.7652 7.60536 11.0196 7.79289 11.2071C7.98043 11.3946 8.23478 11.5 8.5 11.5V9.5ZM9.5 14.5C9.76522 14.5 10.0196 14.3946 10.2071 14.2071C10.3946 14.0196 10.5 13.7652 10.5 13.5C10.5 13.2348 10.3946 12.9804 10.2071 12.7929C10.0196 12.6054 9.76522 12.5 9.5 12.5V14.5Z" fill="black"/>
<path fill-rule="evenodd" clip-rule="evenodd" d="M3.57649 1.8105C4.80349 1.21 6.81649 0.5 9.01949 0.5C11.1765 0.5 13.1365 1.1805 14.357 1.773L14.426 1.8065C14.794 1.9885 15.091 2.1605 15.3 2.3L13.453 5C17.711 9.353 21 18.4985 9.01949 18.4985C-2.96101 18.4985 0.23949 9.519 4.53449 5L2.69949 2.3C2.84099 2.2075 3.02049 2.1 3.23449 1.986C3.34049 1.929 3.45449 1.87 3.57649 1.8105ZM12.266 4.9645L13.7445 2.803C12.3695 2.902 10.7335 3.225 9.15849 3.681C8.03349 4.006 6.78349 3.9565 5.62599 3.743C5.33431 3.68892 5.04462 3.62455 4.75749 3.55L5.71749 4.9635C7.77499 5.696 10.208 5.696 12.266 4.9645ZM5.13999 5.815C7.54749 6.745 10.441 6.745 12.8485 5.814C13.8534 6.87335 14.6941 8.07719 15.3425 9.3855C16.0185 10.7645 16.3865 12.143 16.3265 13.331C16.2685 14.4775 15.8175 15.457 14.7875 16.185C13.714 16.9435 11.9085 17.4985 9.01899 17.4985C6.12649 17.4985 4.31249 16.953 3.22899 16.203C2.19149 15.4845 1.73599 14.518 1.67149 13.387C1.60399 12.212 1.96399 10.8405 2.63749 9.452C3.27999 8.128 4.17649 6.8535 5.13999 5.815ZM4.56499 2.458C4.96499 2.577 5.38299 2.6805 5.80699 2.759C6.88199 2.957 7.95999 2.986 8.87999 2.7195C9.9521 2.40717 11.0425 2.16154 12.145 1.984C11.225 1.707 10.149 1.5 9.01899 1.5C7.29649 1.5 5.68999 1.9805 4.56499 2.458Z" fill="black"/>
</svg>
