<svg width="20" height="21" viewBox="0 0 20 21" fill="none" xmlns="http://www.w3.org/2000/svg">
<path d="M19.376 5.09764L10.576 0.636373C10.3994 0.546897 10.2013 0.5 10 0.5C9.79869 0.5 9.60061 0.546897 9.424 0.636373L0.624 5.09764C0.435219 5.19328 0.277687 5.33417 0.167905 5.50555C0.0581227 5.67693 0.000129528 5.87249 0 6.07174V14.9276C0.000129528 15.1269 0.0581227 15.3224 0.167905 15.4938C0.277687 15.6652 0.435219 15.8061 0.624 15.9017L9.424 20.363C9.60046 20.4529 9.7986 20.5 10 20.5C10.2014 20.5 10.3995 20.4529 10.576 20.363L19.376 15.9017C19.5648 15.8061 19.7223 15.6652 19.8321 15.4938C19.9419 15.3224 19.9999 15.1269 20 14.9276V6.07174C19.9999 5.87249 19.9419 5.67693 19.8321 5.50555C19.7223 5.33417 19.5648 5.19328 19.376 5.09764ZM9.808 1.2864C9.86669 1.25607 9.93279 1.24015 10 1.24015C10.0672 1.24015 10.1333 1.25607 10.192 1.2864L18.867 5.68469L15.05 7.61902C15.0319 7.60512 15.0125 7.59272 14.992 7.58198L6.192 3.12072L9.808 1.2864ZM10 10.1756L1.133 5.68469L5.356 3.54295L14.223 8.03755L10 10.1756ZM1.008 15.2498C0.945172 15.218 0.892726 15.1711 0.856138 15.1141C0.81955 15.0571 0.800163 14.9921 0.8 14.9258V6.35972L9.6 10.8191V19.6074L1.008 15.2498ZM18.992 15.2498L10.4 19.6018V10.8191L14.4 8.79221V12.722C14.4 12.8202 14.4421 12.9144 14.5172 12.9839C14.5922 13.0533 14.6939 13.0924 14.8 13.0924C14.9061 13.0924 15.0078 13.0533 15.0828 12.9839C15.1579 12.9144 15.2 12.8202 15.2 12.722V8.38664L19.2 6.35972V14.9276C19.1998 14.9939 19.1805 15.059 19.1439 15.116C19.1073 15.173 19.0548 15.2199 18.992 15.2517V15.2498Z" fill="black"/>
</svg>
