<svg width="20" height="21" viewBox="0 0 20 21" fill="none" xmlns="http://www.w3.org/2000/svg">
<path d="M17.9167 9.25C18.2083 9.25 18.4792 9.29883 18.7292 9.39648C18.9792 9.49414 19.2014 9.6276 19.3958 9.79688C19.5903 9.96615 19.7361 10.1712 19.8333 10.4121C19.9306 10.653 19.9861 10.9102 20 11.1836C20 11.4375 19.9479 11.6849 19.8438 11.9258C19.7396 12.1667 19.5903 12.2177 19.3958 12.4L11.832 19L8 20.4805L9.34375 17.1707L16.4479 10C16.6493 9.8112 16.875 9.47786 17.125 9.38672C17.375 9.29557 17.6389 9.25 17.9167 9.25ZM18.6667 11.1836C18.6667 10.9753 18.5972 10.8092 18.4583 10.6855C18.3194 10.5618 18.1389 10.5 17.9167 10.5C17.8194 10.5 17.7257 10.513 17.6354 10.5391C17.5451 10.5651 17.4653 10.6139 17.3958 10.6855L10.1875 17.4434L9.83333 18.7617L11.2396 18.4297L18.4479 11.6816C18.5938 11.5449 18.6667 11.3789 18.6667 11.1836ZM0.8 1.3V10.5V19.8H6.28125V20.5H0V0.5H11.6146L17.3333 5.86133L17.33 8.5C17.0731 8.53255 16.2014 8.9349 16 9C15.7986 9.0651 16.7006 8.15137 16.84 8L16.8438 6.2H11V4V1.3H0.8ZM11.6146 1.3L11.61 5.5H16.2L14 3.5L11.6146 1.3ZM13.3333 9.25V9.80664H8.5L4 9.80496V9.25H13.3333ZM4 14.8V14.25H9.34375L8.08 14.8H4ZM12.0104 11.75L10.6771 12.3H7.5H4V11.75H12.0104Z" fill="black"/>
</svg>
