<svg width="22" height="21" viewBox="0 0 22 21" fill="none" xmlns="http://www.w3.org/2000/svg">
<path d="M11 20.5C16.523 20.5 21 16.023 21 10.5C21 4.977 16.523 0.5 11 0.5C5.477 0.5 1 4.977 1 10.5C1 16.023 5.477 20.5 11 20.5Z" stroke="black" stroke-linejoin="round"/>
<path d="M6 12C6.82843 12 7.5 11.3284 7.5 10.5C7.5 9.67157 6.82843 9 6 9C5.17157 9 4.5 9.67157 4.5 10.5C4.5 11.3284 5.17157 12 6 12Z" fill="black"/>
<path d="M11 12C11.8284 12 12.5 11.3284 12.5 10.5C12.5 9.67157 11.8284 9 11 9C10.1716 9 9.5 9.67157 9.5 10.5C9.5 11.3284 10.1716 12 11 12Z" fill="black"/>
<path d="M16 12C16.8284 12 17.5 11.3284 17.5 10.5C17.5 9.67157 16.8284 9 16 9C15.1716 9 14.5 9.67157 14.5 10.5C14.5 11.3284 15.1716 12 16 12Z" fill="black"/>
</svg>
