<svg width="20" height="21" viewBox="0 0 20 21" fill="none" xmlns="http://www.w3.org/2000/svg">
<path d="M5.61538 10.0625H5.17703L5.06731 11.0768L5.52404 10.7705L5.61538 10.0625ZM14.5421 10.7696L15.1154 11.193V9.793L14.6587 10.0618L14.5421 10.7696ZM5.52404 13.3H4.88462V14H5.52857V13.5625L5.52404 13.3ZM14.5421 13.3V14H15.1154V13.3H14.5421ZM5.52404 7.52133L5.61538 7H4.88462V7.7L5.52404 7.52133ZM14.5421 7.52133L15.1154 7.7V7H14.3846L14.5421 7.52133ZM18.7692 4.9H19.5V4.6102L19.2866 4.4044L18.7692 4.9ZM14.3846 0.7L14.902 0.2044L14.6872 0H14.3846V0.7ZM5.52404 10.7705L10 10.7696H14.5421L14.6587 10.0618L10 10.0625H5.61538L5.52404 10.7705ZM5.52857 14H14.5421V13.475H10H5.52857V14ZM5.52404 7.52133H10H14.5421L14.3846 7H5.61538L5.52404 7.52133ZM17.3077 20.125H2.78365L2.69231 21H17.3077V20.125ZM1.59615 18.9V10.5V2.1H0.5V18.9H1.59615ZM18.4038 4.9V18.9H19.5V4.9H18.4038ZM2.69231 0.875H8.53846H14.3846V0H2.69231V0.875ZM14.2019 0.875L18.7692 5.25L19.2866 4.4044L14.902 0.2044L14.2019 0.875ZM2.78365 20.125C2.58984 20.125 2.00724 19.8188 1.87019 19.6875C1.73315 19.5562 1.59615 19.0857 1.59615 18.9H0.5C0.5 19.457 0.730975 19.9911 1.14211 20.3849C1.55325 20.7788 2.11087 21 2.69231 21L2.78365 20.125ZM17.3077 21C17.8891 21 18.4468 20.7788 18.8579 20.3849C19.269 19.9911 19.5 19.457 19.5 18.9H18.4038C18.4038 19.0857 18.4495 19.5562 18.3125 19.6875C18.1755 19.8188 17.5015 20.125 17.3077 20.125V21ZM1.59615 2.1C1.59615 1.91435 1.82449 1.44378 1.96154 1.3125C2.09858 1.18122 2.4985 0.875 2.69231 0.875V0C2.11087 0 1.55325 0.221249 1.14211 0.615076C0.730975 1.0089 0.5 1.54305 0.5 2.1H1.59615ZM4.88462 7.7V13.3H5.52404V10.5V7.52133L4.88462 7.7ZM9.74434 7.52133V10.4188V13.475H10.323V7.52133H10H9.74434ZM14.5421 7.52133V10.4188V13.3H15.1154V7.7L14.5421 7.52133ZM4.88462 5.6H9.26923V4.9H4.88462V5.6ZM10.7308 16.8H15.1154L15.1154 16.1875H12.8317H10.7308V16.8Z" fill="black"/>
</svg>
