<svg width="20" height="22" viewBox="0 0 20 22" fill="none" xmlns="http://www.w3.org/2000/svg">
<path d="M0 0.5V20H12V18.95H1V1.45H9.5V5.8H14.2272V8H15V5.45L14.775 5.225L10.275 0.725L10.05 0.5H0ZM10.275 1.87901L13.5 5H10.275V1.87901ZM3 8V9H12V8H3ZM15.75 9.5V11C14.475 11.225 13.5 12.275 13.5 13.625C13.5 15.125 14.625 16.25 16.125 16.25H16.875C17.475 16.25 18 16.775 18 17.375C18 17.975 17.475 18.5 16.875 18.5H14.25V20H15.75V21.5H17.25V20C18.525 19.775 19.5 18.725 19.5 17.375C19.5 15.875 18.375 14.75 16.875 14.75H16.125C15.525 14.75 15 14.225 15 13.625C15 13.025 15.525 12.5 16.125 12.5H18.75V11H17.25V9.5H15.75ZM3 11.75V12.5H8.25V11.75H3ZM9.75 11.75V12.5H12V11.75H9.75ZM3 14.75V15.5H8.25V14.75H3ZM9.75 14.75V15.5H12V14.75H9.75Z" fill="black"/>
</svg>
