<svg width="20" height="21" viewBox="0 0 20 21" fill="none" xmlns="http://www.w3.org/2000/svg">
<path d="M18.2275 12.5345L18.1799 12.0611L18.1656 12.0621L18.1494 12.0649L18.2275 12.5345ZM18.2275 12.5345L18.2752 13.0088L18.2913 13.0069L18.3066 13.004L18.2275 12.5345ZM14.3797 17.7559L14.6817 17.3873L14.6769 17.3845L14.3797 17.7559ZM14.3797 17.7559L14.0778 18.1245L14.0826 18.1283L14.3797 17.7559ZM5.62122 17.7559L5.3193 17.3883L5.31263 17.394L5.30501 17.4007L5.62122 17.7559ZM5.62122 17.7559L5.92314 18.1255L5.93076 18.1188L5.93743 18.1131L5.62122 17.7559ZM1.77247 8.46552V7.98928H1.74961L1.7258 7.99119L1.77247 8.46552ZM1.77247 8.46552V8.94176H1.79628L1.82009 8.9389L1.77247 8.46552ZM12.5073 2.22397C12.493 2.05128 12.473 1.8791 12.4473 1.70773C12.4255 1.5561 12.3798 1.40887 12.312 1.2715L11.4653 1.70869C11.4748 1.72774 11.491 1.76583 11.5072 1.86489C11.5253 1.96966 11.5386 2.10587 11.5605 2.31827L12.5073 2.22397ZM12.6939 3.3698C12.6825 3.35551 12.6482 3.29741 12.6111 3.09358C12.5668 2.80499 12.5334 2.51494 12.5092 2.22397L11.5605 2.31827C11.5986 2.70021 11.6301 3.01643 11.6739 3.26217C11.7167 3.50219 11.7834 3.74698 11.9368 3.94795L12.6939 3.3698ZM13.1359 3.55267C13.0526 3.56387 12.9679 3.55286 12.8903 3.52074C12.8127 3.48862 12.7449 3.43655 12.6939 3.3698L11.9358 3.94699C12.0888 4.14757 12.2921 4.30408 12.5251 4.4006C12.7581 4.49713 13.0126 4.53024 13.2625 4.49657L13.1359 3.55267ZM14.0769 2.87356C13.7673 3.12787 13.5559 3.30027 13.3892 3.41552C13.2187 3.53362 13.153 3.54981 13.1359 3.55267L13.2625 4.49657C13.5121 4.46323 13.7321 4.33751 13.933 4.19749C14.1378 4.05462 14.3826 3.85461 14.6807 3.61077L14.0769 2.87356ZM14.8883 2.33922C14.7359 2.3878 14.6074 2.46495 14.4855 2.55162C14.3673 2.63544 14.2331 2.74593 14.0769 2.87356L14.6807 3.61077C14.8455 3.47552 14.9521 3.38885 15.0379 3.32789C15.0804 3.2936 15.128 3.26598 15.1788 3.24598L14.8883 2.33922ZM15.8912 2.38875C15.5739 2.25143 15.2176 2.23383 14.8883 2.33922L15.1788 3.24598C15.2884 3.21128 15.4068 3.21737 15.5122 3.26312L15.8912 2.38875ZM16.6456 3.00214C16.5027 2.85927 16.3798 2.73545 16.2712 2.6402C16.1586 2.5369 16.0304 2.45204 15.8912 2.38875L15.5122 3.26312C15.5322 3.27169 15.5684 3.29169 15.6446 3.35837C15.7236 3.42695 15.8208 3.5241 15.9722 3.67554L16.6456 3.00214ZM17.4961 3.8527L16.6456 3.00214L15.9722 3.67554L16.8227 4.5261L17.4961 3.8527ZM18.1094 4.60706C18.0458 4.46789 17.9606 4.33963 17.857 4.22702C17.7618 4.11844 17.638 3.99557 17.4961 3.8527L16.8227 4.5261C16.9741 4.67754 17.0703 4.77469 17.1408 4.85375C17.2075 4.92995 17.2265 4.96614 17.2351 4.98614L18.1094 4.60706ZM18.159 5.61001C18.2643 5.28071 18.2467 4.92437 18.1094 4.60706L17.2351 4.98614C17.2805 5.09167 17.2863 5.21007 17.2513 5.31951L18.159 5.61001ZM17.6246 6.42152C17.7523 6.26531 17.8628 6.13101 17.9466 6.01291C18.0323 5.89099 18.1104 5.76241 18.159 5.61001L17.2513 5.31951C17.2316 5.37032 17.2043 5.41785 17.1703 5.46047C17.0796 5.58231 16.9853 5.70142 16.8875 5.81765L17.6246 6.42152ZM16.9456 7.36256C16.9484 7.34541 16.9646 7.27969 17.0827 7.1092C17.198 6.94252 17.3703 6.73107 17.6246 6.42152L16.8875 5.81765C16.6437 6.11577 16.4427 6.36056 16.3008 6.56534C16.1608 6.76536 16.035 6.98633 16.0017 7.23588L16.9456 7.36256ZM17.1284 7.8045C17.0617 7.75351 17.0096 7.68577 16.9775 7.60815C16.9454 7.53054 16.9344 7.44581 16.9456 7.36256L16.0017 7.23588C15.9682 7.48571 16.0014 7.73996 16.0979 7.97282C16.1944 8.20567 16.3509 8.40885 16.5513 8.56172L17.1284 7.8045ZM18.2742 7.99024C17.8751 7.95023 17.6046 7.92356 17.4046 7.88737C17.2008 7.85022 17.1427 7.81593 17.1284 7.8045L16.5513 8.56172C16.7513 8.71412 16.996 8.78079 17.237 8.8246C17.4818 8.86842 17.797 8.9008 18.1799 8.9389L18.2742 7.99024ZM19.2266 8.18645C19.0893 8.11864 18.942 8.07299 18.7904 8.0512C18.6476 8.02738 18.4742 8.01024 18.2742 7.99024L18.179 8.93795C18.3923 8.95985 18.5285 8.97319 18.6333 8.99128C18.6871 8.99735 18.7398 9.01148 18.7895 9.03319L19.2266 8.18645ZM19.9 8.93033C19.7729 8.60911 19.5336 8.34484 19.2266 8.18645L18.7895 9.03319C18.8919 9.08585 18.9717 9.17383 19.0142 9.28084L19.9 8.93033ZM20 9.89708C20 9.69611 20 9.52181 19.9905 9.37704C19.9841 9.22429 19.9535 9.07353 19.9 8.93033L19.0142 9.28084C19.0219 9.30084 19.0333 9.34084 19.04 9.44085C19.0474 9.59313 19.0499 9.7456 19.0476 9.89804L20 9.89708ZM20 11.101V9.89708H19.0476V11.101H20ZM19.9 12.0668C19.959 11.9182 19.981 11.7696 19.9905 11.6201C20 11.4763 20 11.302 20 11.101H19.0476C19.0476 11.3144 19.0476 11.4515 19.04 11.5572C19.0395 11.6116 19.0308 11.6655 19.0142 11.7173L19.9 12.0668ZM19.2266 12.8116C19.5338 12.653 19.773 12.3884 19.9 12.0668L19.0142 11.7173C18.9717 11.8243 18.8919 11.9122 18.7895 11.9649L19.2266 12.8116ZM18.2742 13.0079C18.4742 12.9879 18.6485 12.9698 18.7904 12.9459C18.938 12.9221 19.0838 12.885 19.2257 12.8126L18.7895 11.9649C18.7398 11.9867 18.6871 12.0008 18.6333 12.0068C18.5285 12.0249 18.3923 12.0382 18.1799 12.0601L18.2742 13.0079ZM17.1294 13.1936C17.1437 13.1822 17.2018 13.1469 17.4056 13.1107C17.6056 13.0745 17.8761 13.0469 18.2742 13.0079L18.1799 12.0601C17.798 12.0982 17.4818 12.1287 17.2361 12.1735C16.996 12.2164 16.7522 12.283 16.5513 12.4354L17.1294 13.1936ZM16.9456 13.6355C16.9345 13.5522 16.9456 13.4674 16.9779 13.3898C17.0102 13.3122 17.0625 13.2445 17.1294 13.1936L16.5513 12.4354C16.3507 12.5884 16.1942 12.7917 16.0977 13.0247C16.0012 13.2578 15.968 13.5122 16.0017 13.7622L16.9456 13.6355ZM17.6246 14.5766C17.4362 14.3536 17.2554 14.1243 17.0827 13.8889C16.9646 13.7194 16.9484 13.6527 16.9456 13.6355L16.0027 13.7632C16.036 14.0127 16.1617 14.2318 16.3008 14.4328C16.4436 14.6366 16.6437 14.8823 16.8875 15.1795L17.6246 14.5766ZM18.159 15.3881C18.1098 15.2431 18.0382 15.1068 17.9466 14.9842C17.8435 14.845 17.7362 14.7091 17.6246 14.5766L16.8875 15.1795C17.0227 15.3452 17.1094 15.4509 17.1703 15.5376C17.2042 15.58 17.2315 15.6272 17.2513 15.6776L18.159 15.3881ZM18.1094 16.391C18.2467 16.0737 18.2643 15.7174 18.159 15.3881L17.2513 15.6776C17.2865 15.7874 17.2808 15.9061 17.2351 16.012L18.1094 16.391ZM17.497 17.1444C17.6389 17.0025 17.7618 16.8797 17.857 16.7711C17.9561 16.6577 18.0456 16.5387 18.1094 16.391L17.2351 16.012C17.2102 16.0603 17.1781 16.1046 17.1399 16.1434C17.0374 16.2557 16.9317 16.365 16.8227 16.471L17.497 17.1444ZM16.6456 17.996L17.497 17.1444L16.8227 16.471L15.9722 17.3226L16.6456 17.996ZM15.8912 18.6084C16.0379 18.5446 16.1579 18.456 16.2712 18.3569C16.3798 18.2617 16.5027 18.1379 16.6456 17.995L15.9722 17.3226C15.8208 17.474 15.7236 17.5702 15.6446 17.6397C15.6055 17.678 15.5609 17.7101 15.5122 17.735L15.8912 18.6084ZM14.8883 18.6589C15.2177 18.764 15.5741 18.746 15.8912 18.6084L15.5122 17.735C15.4066 17.7804 15.2882 17.7862 15.1788 17.7512L14.8883 18.6589ZM14.0769 18.1236C14.2331 18.2512 14.3673 18.3617 14.4855 18.4455C14.6074 18.5322 14.7359 18.6103 14.8883 18.6589L15.1788 17.7512C15.128 17.7315 15.0805 17.7042 15.0379 17.6702C14.916 17.5792 14.7969 17.4845 14.6807 17.3864L14.0769 18.1236ZM13.1359 17.4454C13.153 17.4473 13.2197 17.4645 13.3892 17.5826C13.5559 17.6978 13.7673 17.8702 14.0769 18.1236L14.6807 17.3864C14.3826 17.1435 14.1378 16.9425 13.933 16.7996C13.733 16.6606 13.5121 16.5349 13.2625 16.5015L13.1359 17.4454ZM12.6939 17.6283C12.7449 17.5615 12.8127 17.5095 12.8903 17.4774C12.9679 17.4452 13.0526 17.4342 13.1359 17.4454L13.2625 16.5015C13.0128 16.4679 12.7586 16.501 12.5258 16.5973C12.2929 16.6937 12.0897 16.8499 11.9368 17.0501L12.6939 17.6283ZM12.5082 18.7741C12.5482 18.375 12.5749 18.1045 12.6111 17.9045C12.6482 17.7007 12.6825 17.6426 12.6939 17.6283L11.9368 17.0501C11.7844 17.2502 11.7177 17.4959 11.6739 17.7359C11.6301 17.9807 11.5977 18.296 11.5596 18.6789L12.5082 18.7741ZM12.312 19.7266C12.3854 19.5837 12.4215 19.438 12.4463 19.2904C12.4711 19.1475 12.4882 18.9741 12.5082 18.7741L11.5596 18.6789C11.5464 18.8308 11.5295 18.9823 11.5072 19.1332C11.5012 19.1871 11.487 19.2397 11.4653 19.2894L12.312 19.7266ZM11.5682 20.4C11.8894 20.2728 12.1536 20.0336 12.312 19.7266L11.4653 19.2894C11.4127 19.3918 11.3247 19.4717 11.2177 19.5142L11.5682 20.4ZM10.6015 20.5C10.8024 20.5 10.9767 20.5 11.1215 20.4905C11.2701 20.4809 11.4196 20.459 11.5682 20.4L11.2177 19.5142C11.1659 19.5308 11.112 19.5394 11.0577 19.5399C10.9529 19.5475 10.8148 19.5475 10.6005 19.5475L10.6015 20.5ZM9.39759 20.5H10.6015L10.6005 19.5475H9.39759V20.5ZM8.43088 20.4C8.58041 20.459 8.72899 20.4809 8.87852 20.4905C9.02233 20.5 9.19663 20.5 9.39759 20.5V19.5475C9.18425 19.5475 9.0471 19.5475 8.94138 19.5399C8.88705 19.5394 8.83311 19.5308 8.78137 19.5142L8.43088 20.4ZM7.68703 19.7266C7.84541 20.0336 8.10967 20.2728 8.43088 20.4L8.78137 19.5142C8.67437 19.4717 8.5864 19.3918 8.53374 19.2894L7.68703 19.7266ZM7.49083 18.7741C7.51083 18.9741 7.52893 19.1484 7.55179 19.2904C7.57655 19.438 7.6137 19.5837 7.68703 19.7266L8.53374 19.2894C8.51202 19.2397 8.4979 19.1871 8.49183 19.1332C8.46952 18.9826 8.45173 18.8315 8.4385 18.6798L7.49083 18.7741ZM7.30511 17.6283C7.31654 17.6426 7.35083 17.7007 7.38797 17.9045C7.42416 18.1045 7.45083 18.376 7.49083 18.7741L8.4385 18.6798C8.4004 18.2979 8.36897 17.9817 8.32516 17.7359C8.2823 17.4959 8.21563 17.2511 8.06229 17.0501L7.30511 17.6283ZM6.86318 17.4454C6.94643 17.4342 7.03115 17.4452 7.10877 17.4774C7.18638 17.5095 7.25412 17.5615 7.30511 17.6283L8.06229 17.0501C7.90942 16.8497 7.70626 16.6943 7.47341 16.5977C7.24057 16.5012 6.98633 16.468 6.73651 16.5015L6.86318 17.4454ZM5.92219 18.1245C6.23172 17.8702 6.44316 17.6978 6.60984 17.5826C6.78032 17.4645 6.84604 17.4473 6.86318 17.4454L6.73651 16.5015C6.48698 16.5349 6.26696 16.6606 6.066 16.8006C5.86123 16.9425 5.61646 17.1435 5.31835 17.3873L5.92219 18.1245ZM5.11072 18.6589C5.26311 18.6103 5.39169 18.5331 5.5136 18.4465C5.6317 18.3627 5.76599 18.2522 5.92219 18.1245L5.31835 17.3873C5.20213 17.4851 5.08302 17.5795 4.96119 17.6702C4.91859 17.7042 4.87106 17.7315 4.82023 17.7512L5.11072 18.6589ZM4.10781 18.6103C4.42511 18.7476 4.78144 18.7643 5.11072 18.6589L4.82023 17.7512C4.7108 17.7862 4.59241 17.7804 4.48688 17.735L4.10781 18.6103ZM3.35349 17.996C3.49636 18.1388 3.61922 18.2626 3.7278 18.3579C3.84018 18.456 3.96114 18.5465 4.10781 18.6103L4.48688 17.735C4.43817 17.7101 4.39353 17.678 4.35449 17.6397C4.24217 17.5373 4.13291 17.4315 4.02686 17.3226L3.35349 17.996ZM2.50298 17.1454L3.35349 17.996L4.02686 17.3226L3.17634 16.472L2.50298 17.1454ZM1.88961 16.391C1.95343 16.5377 2.04295 16.6577 2.14201 16.7711C2.23725 16.8797 2.36106 17.0025 2.50298 17.1454L3.17634 16.472C3.06708 16.366 2.961 16.2567 2.85823 16.1443C2.81996 16.1053 2.78785 16.0607 2.76299 16.012L1.88961 16.391ZM1.84009 15.3881C1.7347 15.7174 1.7523 16.0737 1.88961 16.391L2.76299 16.012C2.71724 15.9065 2.71211 15.7881 2.7468 15.6786L1.84009 15.3881ZM2.3744 14.5766C2.24677 14.7328 2.13629 14.8671 2.05248 14.9852C1.96098 15.1075 1.8893 15.2435 1.84009 15.3881L2.7468 15.6786C2.7668 15.6277 2.79441 15.5802 2.82871 15.5376C2.88966 15.4519 2.97633 15.3452 3.11158 15.1804L2.3744 14.5766ZM3.05348 13.6355C3.05062 13.6527 3.03443 13.7184 2.91633 13.8889C2.80013 14.0556 2.6287 14.267 2.3744 14.5766L3.11158 15.1804C3.3554 14.8823 3.55636 14.6375 3.69827 14.4328C3.83828 14.2327 3.964 14.0118 3.99733 13.7622L3.05348 13.6355ZM2.87061 13.1936C2.93736 13.2446 2.98943 13.3123 3.02155 13.3899C3.05366 13.4676 3.06468 13.5523 3.05348 13.6355L3.99733 13.7622C4.03083 13.5124 3.99763 13.2581 3.90112 13.0253C3.8046 12.7924 3.6482 12.5892 3.44778 12.4364L2.87061 13.1936ZM1.72484 13.0088C2.12391 13.0479 2.3944 13.0745 2.59441 13.1107C2.79823 13.1479 2.85633 13.1822 2.87061 13.1936L3.44778 12.4354C3.24777 12.283 3.003 12.2164 2.76204 12.1735C2.51726 12.1297 2.20201 12.0973 1.81913 12.0592L1.72484 13.0088ZM0.772418 12.8116C0.915282 12.885 1.061 12.9212 1.20863 12.9459C1.35149 12.9707 1.52388 12.9888 1.72484 13.0088L1.82009 12.0601C1.66815 12.0469 1.51665 12.0291 1.36578 12.0068C1.31191 12.0007 1.25925 11.9866 1.20958 11.9649L0.772418 12.8116ZM0.0990523 12.0668C0.225999 12.3884 0.46524 12.653 0.772418 12.8116L1.20958 11.9649C1.10718 11.9122 1.02733 11.8243 0.984809 11.7173L0.0990523 12.0668ZM0 11.1029C0 11.3039 -8.87016e-09 11.4782 0.00952425 11.623C0.0156882 11.7754 0.0462354 11.9259 0.100005 12.0687L0.985761 11.7192C0.969204 11.6674 0.960535 11.6135 0.960046 11.5591C0.952968 11.4069 0.950427 11.2544 0.952426 11.102L0 11.1029ZM0 9.89899V11.1029H0.952426V9.89899H0ZM0.100005 8.93223C0.0464434 9.07575 0.0159063 9.22684 0.00952425 9.37989C-8.87016e-09 9.52372 0 9.69802 0 9.89899H0.952426C0.952426 9.68564 0.952426 9.54848 0.960046 9.44276C0.960505 9.38843 0.969175 9.33448 0.985761 9.28274L0.100005 8.93223ZM0.77337 8.18835C0.466364 8.34674 0.227145 8.61101 0.100005 8.93223L0.985761 9.28274C1.02828 9.17573 1.10814 9.08776 1.21053 9.0351L0.77337 8.18835ZM1.7258 7.99119C1.52579 8.01119 1.35149 8.03024 1.20958 8.0531C1.05796 8.0749 0.910732 8.12054 0.77337 8.18835L1.21053 9.0351C1.22958 9.02557 1.26768 9.00938 1.36673 8.99319C1.4715 8.97509 1.6077 8.96176 1.82009 8.93985L1.7258 7.99119ZM2.87157 7.80641C2.85728 7.81784 2.79918 7.85213 2.59536 7.88927C2.39535 7.92547 2.12486 7.95119 1.7258 7.99119L1.82009 8.93985C2.20201 8.90175 2.51917 8.87032 2.76394 8.82651C3.0049 8.78365 3.24968 8.71697 3.44969 8.56362L2.87157 7.80641ZM3.05443 7.36446C3.06563 7.44771 3.05462 7.53244 3.0225 7.61006C2.99038 7.68767 2.93831 7.75542 2.87157 7.80641L3.44969 8.56362C3.64993 8.41064 3.80615 8.20742 3.90249 7.97457C3.99884 7.74172 4.03189 7.48658 3.99829 7.23683L3.05443 7.36446ZM2.37535 6.42247C2.62965 6.73297 2.80204 6.94442 2.91823 7.11111C3.03633 7.2816 3.05157 7.34732 3.05443 7.36446L3.99829 7.23683C3.96495 6.98728 3.83923 6.76822 3.69922 6.56724C3.55731 6.36246 3.35635 6.11768 3.11253 5.81955L2.37535 6.42247ZM1.84104 5.61096C1.88866 5.76336 1.96676 5.89289 2.05343 6.01481C2.13724 6.13196 2.24773 6.26722 2.37535 6.42247L3.11253 5.81955C3.01471 5.70301 2.92038 5.58358 2.82966 5.46142C2.79545 5.41915 2.76784 5.37195 2.74775 5.32141L1.84104 5.61096ZM1.89057 4.60896C1.75348 4.92599 1.73589 5.28196 1.84104 5.61096L2.74775 5.32141C2.71306 5.21186 2.71915 5.09346 2.76489 4.98805L1.89057 4.60896ZM2.50393 3.8546C2.36106 3.99652 2.23725 4.11939 2.14201 4.22893C2.03872 4.34159 1.95386 4.46984 1.89057 4.60896L2.76489 4.98805C2.78983 4.93968 2.82194 4.89441 2.86014 4.85565C2.96217 4.74293 3.06795 4.63365 3.17729 4.528L2.50393 3.8546ZM3.35445 3.0031L2.50393 3.8546L3.17729 4.528L4.02781 3.67649L3.35445 3.0031ZM4.10877 2.39066C3.96969 2.45403 3.84145 2.53888 3.72875 2.64211C3.62017 2.73736 3.49636 2.86022 3.35445 3.0031L4.02781 3.67649C4.17925 3.526 4.27639 3.42885 4.35545 3.35932C4.43164 3.29265 4.46783 3.2736 4.48783 3.26407L4.10877 2.39066ZM5.11167 2.34018C4.78228 2.23508 4.42595 2.25302 4.10877 2.39066L4.48783 3.26407C4.59324 3.21833 4.71164 3.21319 4.82118 3.24788L5.11167 2.34018ZM5.92314 2.87546C5.76694 2.74783 5.63265 2.63735 5.51455 2.55353C5.39232 2.46165 5.25636 2.38964 5.11167 2.34018L4.82118 3.24788C4.87199 3.26759 4.91952 3.29488 4.96214 3.32884C5.04786 3.39075 5.15453 3.47743 5.32025 3.61268L5.92314 2.87546ZM6.86414 3.55458C6.84699 3.55172 6.78127 3.53553 6.61079 3.41742C6.3754 3.24441 6.14604 3.06429 5.92314 2.87546L5.32025 3.61268C5.61741 3.85651 5.86314 4.05748 6.06696 4.1994C6.26696 4.33846 6.48793 4.46419 6.73746 4.49848L6.86414 3.55458ZM7.30606 3.37075C7.25518 3.43767 7.18749 3.48993 7.10987 3.52222C7.03225 3.55451 6.94747 3.56567 6.86414 3.55458L6.73746 4.49848C6.98735 4.53226 7.24172 4.49834 7.47475 4.40198C7.70777 4.30562 7.91114 4.1493 8.06419 3.9489L7.30606 3.37075ZM7.49179 2.22588C7.45178 2.62401 7.42512 2.89547 7.38892 3.09453C7.35178 3.29836 7.31749 3.35646 7.30606 3.37075L8.06419 3.9489C8.21658 3.74888 8.28325 3.5041 8.32611 3.26312C8.36992 3.01833 8.4023 2.70307 8.4404 2.32017L7.49179 2.22588ZM7.68798 1.27341C7.61465 1.41628 7.5775 1.56201 7.55274 1.70964C7.52893 1.85251 7.51179 2.02491 7.49179 2.22588L8.43945 2.32113C8.45266 2.16918 8.47045 2.01767 8.49278 1.8668C8.49879 1.81291 8.51292 1.76025 8.53469 1.71059L7.68798 1.27341ZM8.43278 0.600009C8.11106 0.727197 7.84642 0.965857 7.68798 1.27341L8.53469 1.71059C8.58735 1.60819 8.67532 1.52833 8.78232 1.48581L8.43278 0.600009ZM9.39854 0.5C9.19758 0.5 9.02329 0.5 8.87852 0.509525C8.72606 0.515689 8.57558 0.546238 8.43278 0.600009L8.78232 1.48581C8.83406 1.46922 8.888 1.46055 8.94233 1.46009C9.0471 1.45247 9.1852 1.45247 9.3995 1.45247L9.39854 0.5ZM10.6024 0.5H9.39854V1.45247H10.6024V0.5ZM11.5691 0.600009C11.4256 0.54643 11.2745 0.515891 11.1215 0.509525C10.9777 0.5 10.8034 0.5 10.6024 0.5V1.45247C10.8158 1.45247 10.9529 1.45247 11.0586 1.46009C11.1129 1.46086 11.1668 1.46952 11.2186 1.48581L11.5691 0.600009ZM12.313 1.27341C12.1544 0.966215 11.8897 0.726962 11.5682 0.600009L11.2186 1.48581C11.3256 1.52833 11.4136 1.60819 11.4663 1.71059L12.313 1.27341ZM13.334 10.5C13.334 11.3841 12.9828 12.2321 12.3576 12.8572C11.7325 13.4824 10.8846 13.8336 10.0005 13.8336V14.7861C11.1372 14.7861 12.2273 14.3345 13.0311 13.5307C13.8348 12.7269 14.2864 11.6367 14.2864 10.5H13.334ZM10.0005 7.16635C10.8846 7.16635 11.7325 7.51757 12.3576 8.14275C12.9828 8.76793 13.334 9.61586 13.334 10.5H14.2864C14.2864 9.36325 13.8348 8.27306 13.0311 7.46925C12.2273 6.66545 11.1372 6.21388 10.0005 6.21388V7.16635ZM6.66698 10.5C6.66698 9.61586 7.01819 8.76793 7.64334 8.14275C8.26849 7.51757 9.11638 7.16635 10.0005 7.16635V6.21388C8.86378 6.21388 7.77364 6.66545 6.96987 7.46925C6.16611 8.27306 5.71456 9.36325 5.71456 10.5H6.66698ZM10.0005 13.8336C9.11638 13.8336 8.26849 13.4824 7.64334 12.8572C7.01819 12.2321 6.66698 11.3841 6.66698 10.5H5.71456C5.71456 11.6367 6.16611 12.7269 6.96987 13.5307C7.77364 14.3345 8.86378 14.7861 10.0005 14.7861V13.8336Z" fill="black"/>
</svg>
